HIERARCHY
ROOT Bip001_Pelvis
{
  OFFSET 7.937 94.8971 -8.5489
  CHANNELS 6 Xposition Yposition Zposition Zrotation Xrotation Yrotation
  JOINT Bip001_Spine
  {
    OFFSET 1.44608e-005 10.4157 -0.0118244
    CHANNELS 3 Zrotation Xrotation Yrotation
    JOINT Bip001_L_Thigh
    {
      OFFSET 11.2582 -10.4157 0.0118432
      CHANNELS 3 Zrotation Xrotation Yrotation
      JOINT Bip001_L_Calf
      {
        OFFSET -0.720717 -44.8687 0.366937
        CHANNELS 3 Zrotation Xrotation Yrotation
        JOINT Bip001_L_Foot
        {
          OFFSET -0.664439 -41.3745 -3.62995
          CHANNELS 3 Zrotation Xrotation Yrotation
          JOINT Bip001_L_Toe0
          {
            OFFSET 0.0541047 -10.4146 13.4033
            CHANNELS 3 Zrotation Xrotation Yrotation
            End Site
            {
              OFFSET -1.04503e-005 0 7.70137
            }
          }
        }
      }
    }
    JOINT Bip001_R_Thigh
    {
      OFFSET -11.2582 -10.4156 0.0118122
      CHANNELS 3 Zrotation Xrotation Yrotation
      JOINT Bip001_R_Calf
      {
        OFFSET 0.72059 -44.8687 0.36676
        CHANNELS 3 Zrotation Xrotation Yrotation
        JOINT Bip001_R_Foot
        {
          OFFSET 0.664321 -41.3745 -3.62979
          CHANNELS 3 Zrotation Xrotation Yrotation
          JOINT Bip001_R_Toe0
          {
            OFFSET -0.05417 -10.4146 13.4033
            CHANNELS 3 Zrotation Xrotation Yrotation
            End Site
            {
              OFFSET -1.04873e-005 0 7.70137
            }
          }
        }
      }
    }
    JOINT Bip001_Spine1
    {
      OFFSET 1.90638e-005 14.8539 1.10727
      CHANNELS 3 Zrotation Xrotation Yrotation
      JOINT Bip001_Spine2
      {
        OFFSET 2.28934e-005 14.7848 -1.7233
        CHANNELS 3 Zrotation Xrotation Yrotation
        JOINT Bip001_Neck
        {
          OFFSET 2.24514e-005 15.6905 -0.498826
          CHANNELS 3 Zrotation Xrotation Yrotation
          JOINT Bip001_L_Clavicle
          {
            OFFSET 6.17691 -0.000591152 0.00852867
            CHANNELS 3 Zrotation Xrotation Yrotation
            JOINT Bip001_L_UpperArm
            {
              OFFSET 11.773 -0.0611878 0.00197697
              CHANNELS 3 Zrotation Xrotation Yrotation
              JOINT Bip001_L_Forearm
              {
                OFFSET 26.4515 0.0817568 -2.19579
                CHANNELS 3 Zrotation Xrotation Yrotation
                JOINT Bip001_L_Hand
                {
                  OFFSET 32.8677 0.156744 1.67112
                  CHANNELS 3 Zrotation Xrotation Yrotation
                  JOINT Bip001_L_Finger0
                  {
                    OFFSET 6.16268 -2.25226 6.01674
                    CHANNELS 3 Zrotation Xrotation Yrotation
                    End Site
                    {
                      OFFSET 4.30499 -1.46662 0.618148
                    }
                  }
                  JOINT Bip001_L_Finger1
                  {
                    OFFSET 11.2957 -0.718374 -0.201963
                    CHANNELS 3 Zrotation Xrotation Yrotation
                    End Site
                    {
                      OFFSET 6.31952 -0.405163 -0.0802303
                    }
                  }
                }
              }
            }
          }
          JOINT Bip001_R_Clavicle
          {
            OFFSET -6.17691 -0.000574027 0.00851165
            CHANNELS 3 Zrotation Xrotation Yrotation
            JOINT Bip001_R_UpperArm
            {
              OFFSET -11.773 -0.0611516 0.00194365
              CHANNELS 3 Zrotation Xrotation Yrotation
              JOINT Bip001_R_Forearm
              {
                OFFSET -26.4514 0.0822334 -2.19736
                CHANNELS 3 Zrotation Xrotation Yrotation
                JOINT Bip001_R_Hand
                {
                  OFFSET -32.8677 0.156817 1.67144
                  CHANNELS 3 Zrotation Xrotation Yrotation
                  JOINT Bip001_R_Finger0
                  {
                    OFFSET -6.1627 -2.25224 6.0167
                    CHANNELS 3 Zrotation Xrotation Yrotation
                    End Site
                    {
                      OFFSET -4.30499 -1.46662 0.618134
                    }
                  }
                  JOINT Bip001_R_Finger1
                  {
                    OFFSET -11.2958 -0.718344 -0.201994
                    CHANNELS 3 Zrotation Xrotation Yrotation
                    End Site
                    {
                      OFFSET -6.31952 -0.405146 -0.0802475
                    }
                  }
                }
              }
            }
          }
          JOINT Bip001_Head
          {
            OFFSET 1.11782e-005 11.4912 2.09908
            CHANNELS 3 Zrotation Xrotation Yrotation
            End Site
            {
              OFFSET 2.95144e-005 21.2823 -2.83069e-005
            }
          }
        }
      }
    }
  }
}
MOTION
Frames:	9
Frame Time:	0.04
12.4101 94.3712 -8.49961 -1.00935 5.49914 33.9796 -1.56332 0.169365 3.58924 -3.83934 -19.7274 -2.71335 2.08795 19.8181 -17.484 1.58476 -4.14657 -7.07115 0.659693 -10.4326 -1.81943 -9.9965 -1.41121 -12.5889 1.75121 15.7449 -7.93464 1.16175 -12.723 -21.3821 3.07575 -11.6044 -2.45499 -2.60755 0.257296 7.17282 -2.60756 0.257293 7.17284 -3.22017 0.0761516 -3.7153 -28.0739 3.83117 -7.84403 -45.1387 39.0591 5.77134 14.5555 4.71024 -25.3563 -3.83713 0.0312905 0.0992671 -5.96354e-016 0 -0 -1.19271e-015 -1.59028e-015 1.59028e-015 12.5748 3.99319 18.8757 9.56913 -3.27745 31.5977 -57.1446 6.84236 65.4515 -23.4002 14.5584 -13.0778 -6.62086e-031 -9.54166e-015 -3.97569e-015 -7.95139e-016 -9.54167e-015 -3.97569e-015 0.12583 6.12247 -4.58575 
12.3423 94.4307 -8.58955 -0.978683 5.26764 33.1867 -1.5112 0.245358 3.45912 -3.5205 -19.5573 -1.98983 2.1579 19.6396 -17.2206 1.50857 -4.11501 -7.10336 0.60623 -10.4135 -1.8187 -9.95622 -1.51017 -13.0487 1.4628 15.5313 -7.67219 1.42801 -12.4031 -20.4349 2.90997 -11.6368 -2.19906 -2.54696 0.414024 6.9149 -2.54697 0.414027 6.91493 -3.33081 0.570382 -3.73577 -27.9707 3.30723 -7.816 -46.0105 39.2375 7.11822 14.8198 5.32986 -25.4243 -4.6964 -0.0293298 0.770252 -1.98785e-015 -3.18055e-015 -0 -9.93923e-016 -1.59028e-015 -0 13.2448 3.56411 18.5057 13.6087 -5.28448 31.0559 -58.6307 6.09158 72.2714 -22.1766 13.3646 -11.1153 5.56597e-015 0 1.59028e-015 3.18055e-015 0 2.38542e-015 0.399951 5.51973 -4.73417 
12.3038 94.5064 -8.7385 -0.685217 5.02753 31.4894 -1.56345 0.312225 3.29579 -3.1308 -19.0772 -1.50746 1.98747 19.2441 -16.5734 1.43303 -4.03478 -6.37303 0.582946 -10.3874 -1.72444 -10.2564 -1.79429 -12.8308 1.50799 15.4901 -7.18868 1.67165 -12.1108 -19.5105 2.49204 -11.6452 -1.91842 -2.68548 0.546899 6.60384 -2.68548 0.5469 6.60382 -2.80121 0.894358 -3.97802 -27.8678 2.67798 -7.35875 -47.5697 40.8943 8.30989 14.7397 5.27726 -24.5095 -5.34018 -0.146472 0.72114 -3.18055e-015 -3.18055e-015 -0 -7.95139e-016 -1.59028e-015 7.95139e-016 15.1436 3.96538 19.3237 16.3721 -7.45547 27.9277 -61.6116 3.86662 81.5366 -19.9718 11.846 -7.8938 -5.56597e-015 6.36111e-015 -5.56597e-015 -7.95139e-016 3.18056e-015 -4.77083e-015 0.106924 5.62928 -4.74365 
12.2601 94.6321 -8.90279 -0.196417 4.606 29.0614 -1.51334 0.41215 3.17495 -2.65328 -18.1939 -1.36736 1.32215 18.5804 -14.9502 1.40265 -3.85323 -5.4067 0.588012 -10.3756 -1.67538 -10.6013 -2.08172 -12.7467 1.05984 15.3664 -6.44843 2.19679 -11.6281 -17.955 2.0078 -11.6524 -1.60831 -2.65189 0.75017 6.37304 -2.6519 0.750178 6.37307 -3.18267 1.42009 -4.20671 -27.7633 2.08567 -7.20799 -48.4949 42.2213 9.03062 14.2228 5.47798 -23.257 -6.38468 -0.302187 0.317895 -2.38542e-015 -3.18055e-015 7.95139e-016 -1.59028e-015 -6.36111e-015 7.95139e-016 18.6376 4.44617 20.1057 15.5163 -5.21563 24.1554 -61.2942 0.645147 86.9432 -19.1241 11.1779 -4.31879 -3.18055e-015 -3.18055e-015 -5.1684e-015 -2.78299e-015 -3.18056e-015 -1.59028e-015 0.222651 5.39172 -5.13326 
12.1772 94.7571 -9.04474 0.240249 3.94693 26.4398 -1.42342 0.540836 3.02424 -2.07768 -17.1977 -0.789742 0.890857 18.0181 -13.53 1.28212 -3.79074 -4.54894 0.599989 -10.36 -1.58039 -10.8097 -2.23946 -12.6357 0.60375 15.0809 -5.6225 2.69045 -11.034 -16.2719 1.50911 -11.6566 -1.29151 -2.55095 1.01355 6.07889 -2.55096 1.01355 6.07891 -3.37186 1.43115 -4.68113 -27.416 1.87348 -6.8285 -49.6906 42.534 9.23005 14.2787 7.53298 -21.9372 -7.74764 -0.341222 -0.439531 -1.98785e-015 3.18055e-015 7.95139e-016 -1.59028e-015 0 -0 21.7543 5.20239 19.7583 15.8752 0.129509 20.7588 -59.6864 -1.24801 89.3422 -17.2886 9.21715 -1.25751 2.38542e-015 -9.54166e-015 -0 -2.64834e-031 -9.54167e-015 -1.59028e-015 0.288249 5.36329 -5.67153 
11.9964 94.8299 -9.25136 0.555102 3.31501 23.9722 -1.35109 0.629392 2.72381 -1.52753 -16.4234 -0.426792 0.63287 17.694 -12.0581 1.02802 -3.84623 -3.70861 0.617182 -10.294 -1.38129 -10.9398 -2.70823 -12.3262 0.255495 15.2383 -4.29351 2.84615 -10.6537 -15.2081 1.19533 -11.6437 -1.12116 -2.47555 1.19923 5.47762 -2.47554 1.19923 5.4776 -3.4618 1.37767 -4.99775 -27.2867 1.79356 -6.55924 -50.6318 43.0073 9.57483 14.1666 8.37016 -21.2379 -8.61848 -0.298639 -0.40954 -4.41391e-032 -3.18055e-015 -7.95139e-016 -3.97569e-016 -3.18056e-015 -7.95139e-016 24.9245 6.13156 19.6884 17.8246 6.33201 16.1346 -56.3787 -1.02408 90.079 -13.235 8.8353 -1.30252 -1.59028e-015 -6.36111e-015 3.18055e-015 -1.59028e-015 -6.36111e-015 3.18055e-015 0.392608 5.51975 -6.03211 
11.8025 94.8696 -9.39165 0.721141 2.36548 21.4718 -1.2308 0.776018 2.33196 -0.643161 -15.6677 0.435867 0.243708 17.9011 -10.5359 0.892981 -4.18148 -3.16723 0.633596 -10.256 -1.2445 -10.9026 -2.95491 -11.5753 0.18704 15.3006 -3.07094 2.75711 -10.2588 -14.3575 0.94973 -11.6438 -0.967251 -2.29048 1.50484 4.69328 -2.29048 1.50484 4.69328 -3.98266 1.01441 -5.05401 -26.8336 2.05894 -6.12915 -51.0081 42.9574 9.6739 14.0199 8.09436 -21.3888 -9.06959 -0.450855 -0.478066 -3.97569e-016 -6.36111e-015 7.95139e-016 8.82782e-032 -6.36111e-015 7.95139e-016 27.7168 7.08492 19.3409 23.0457 11.3872 10.812 -52.9117 0.684376 89.1126 -5.37931 8.40675 -3.50298 -1.76556e-031 1.59028e-015 6.36111e-015 -1.59028e-015 1.59028e-015 9.54166e-015 0.809373 5.73643 -6.33949 
11.5766 94.877 -9.45637 0.949364 1.33277 19.0048 -1.09361 0.946455 1.91647 0.053584 -14.7629 1.81877 0.215163 18.1509 -9.64422 0.634638 -4.61021 -2.65033 0.646315 -10.2126 -1.0873 -10.871 -3.23193 -10.6947 0.00983619 15.6973 -1.86546 2.67306 -10.0828 -13.5764 0.755757 -11.6458 -0.832875 -2.06082 1.85799 3.86097 -2.06082 1.85799 3.86096 -4.35339 0.530237 -5.1234 -26.7266 2.46066 -5.73687 -51.5756 44.0461 10.1545 14.1932 6.16109 -21.9604 -8.43985 -0.581101 -0.260526 -1.19271e-015 0 -0 -1.19271e-015 3.18056e-015 -0 30.0607 8.0341 18.9 28.856 15.8084 4.88835 -42.7706 3.52109 85.6478 0.890651 7.63845 -8.68752 -7.06225e-031 -3.18055e-015 -1.27222e-014 -1.58901e-030 -4.77083e-015 -1.90833e-014 0.748042 6.03692 -6.47676 
11.2539 94.9126 -9.53519 0.953408 0.42985 16.5174 -0.930951 1.13588 1.4825 0.825216 -14.0079 2.3647 -0.0226911 18.3032 -7.95487 0.260697 -4.98913 -2.07516 0.663634 -10.154 -0.908847 -10.6023 -3.66162 -9.24302 -0.0916752 15.8795 -0.873271 2.42329 -9.76721 -13.1547 0.643409 -11.6516 -0.737216 -1.76284 2.24861 2.99172 -1.76283 2.2486 2.99171 -4.62555 0.39619 -5.02789 -26.6025 2.69499 -5.87114 -52.2354 46.1874 10.8418 14.6428 3.27998 -22.7927 -6.65527 -0.476583 0.134012 7.95139e-016 -3.18055e-015 2.38542e-015 -7.95139e-016 0 3.18055e-015 31.8988 8.56644 18.7953 34.6485 20.319 -0.672979 -33.2369 2.72031 78.4034 5.90987 5.78968 -14.6627 -6.36111e-015 -6.36111e-015 -0 -1.76556e-031 -3.18056e-015 -3.18055e-015 0.529531 5.33963 -6.40279 
